<?xml version="1.0" encoding="utf-8"?>
<!-- Generator: Adobe Illustrator 21.0.2, SVG Export Plug-In . SVG Version: 6.00 Build 0)  -->
<svg version="1.1" id="Calque_1" xmlns="http://www.w3.org/2000/svg" xmlns:xlink="http://www.w3.org/1999/xlink" x="0px" y="0px"
	 viewBox="0 0 2500 48" style="enable-background:new 0 0 2500 48;" xml:space="preserve">
<style type="text/css">
	.st0{fill:#0098D9;}
	.st1{fill:url(#SVGID_1_);}
	.st2{fill:#FFFFFF;}
	.st3{fill:url(#SVGID_2_);}
	.st4{fill:url(#SVGID_3_);}
	.st5{fill:url(#SVGID_4_);}
	.st6{fill:url(#SVGID_5_);}
	.st7{fill:url(#SVGID_6_);}
	.st8{fill:url(#SVGID_7_);}
	.st9{fill:url(#SVGID_8_);}
	.st10{fill:url(#SVGID_9_);}
	.st11{fill:url(#SVGID_10_);}
	.st12{fill:url(#SVGID_11_);}
	.st13{fill:url(#SVGID_12_);}
	.st14{fill:url(#SVGID_13_);}
	.st15{fill:#F3D012;}
	.st16{fill:#1962A8;}
	.st17{fill:#70A243;}
</style>
<polygon class="st0" points="0,0 0,48 49.5,48 97,0 "/>
<linearGradient id="SVGID_1_" gradientUnits="userSpaceOnUse" x1="819.3608" y1="-548.7865" x2="1923.957" y2="736.8481">
	<stop  offset="0" style="stop-color:#006BB2"/>
	<stop  offset="3.744924e-02" style="stop-color:#0073B9"/>
	<stop  offset="0.1463" style="stop-color:#0084C7"/>
	<stop  offset="0.2819" style="stop-color:#008FD1"/>
	<stop  offset="0.472" style="stop-color:#0096D7"/>
	<stop  offset="1" style="stop-color:#0098D9"/>
</linearGradient>
<polygon class="st1" points="170.8,0 123,48 2500,48 2500,0 "/>
<path class="st2" d="M195.8,17.1c-0.6-0.8-1.4-1.5-2.3-1.9c-0.9-0.5-2-0.7-3.2-0.7c-1.2,0-2.4,0.3-3.3,0.8c-0.6,0.4-1.2,0.8-1.6,1.3
	c-0.1-0.2-0.2-0.4-0.3-0.6c-0.3-0.5-0.7-1-1.2-1.4l-0.4-0.3l-1.8,1.7l0.4,0.4c0.4,0.4,0.7,0.9,0.9,1.4c0.2,0.6,0.3,1.3,0.3,2.1v20
	h2.8v-8c0.4,0,0.8,0.1,1.2,0.1c0.7,0.1,1.5,0.1,2.4,0.1c1.2,0,2.3-0.2,3.3-0.7c1-0.5,1.8-1.1,2.5-1.9c0.7-0.8,1.2-1.8,1.6-2.8
	c0.4-1.1,0.6-2.3,0.6-3.5c0-1.2-0.2-2.3-0.5-3.4C196.9,18.9,196.4,17.9,195.8,17.1z M194.4,26c-0.2,0.7-0.6,1.4-1.1,1.9
	c-0.5,0.5-1,0.9-1.6,1.2c-0.6,0.3-1.3,0.4-2.1,0.4c-0.9,0-1.7,0-2.4-0.1c-0.5,0-0.9-0.1-1.2-0.1l0-8.4c0.1-0.6,0.2-1.1,0.5-1.6
	c0.3-0.5,0.6-0.8,1-1.2c0.4-0.3,0.8-0.5,1.3-0.7c0.5-0.2,1-0.2,1.5-0.2c0.7,0,1.4,0.2,1.9,0.5c0.6,0.3,1,0.8,1.4,1.3
	c0.4,0.6,0.7,1.2,0.9,2c0.2,0.8,0.3,1.6,0.3,2.4C194.8,24.4,194.7,25.2,194.4,26z M208.5,17.5c-0.2,0-0.4-0.1-0.7-0.1
	c-0.2,0-0.4-0.1-0.6-0.1c-0.2,0-0.5,0-0.8,0c-0.8,0-1.4,0.2-2.1,0.7c-0.6,0.5-1.2,1.2-1.7,2.1v11.9h-2.8V20c0-0.8-0.1-1.5-0.3-2.1
	c-0.2-0.5-0.5-1-0.9-1.4l-0.4-0.4l1.8-1.7l0.4,0.3c0.6,0.4,1,0.9,1.3,1.4c0.1,0.2,0.2,0.4,0.3,0.6c0.5-0.6,1-1.1,1.5-1.5
	c0.8-0.5,1.8-0.8,3-0.8c0.3,0,0.5,0,0.8,0c0.3,0,0.5,0.1,0.7,0.1c0.2,0,0.4,0.1,0.6,0.1l0.4,0.1v2.7L208.5,17.5z M223.1,17.1
	c-0.7-0.8-1.6-1.4-2.7-1.9c-1-0.4-2.2-0.7-3.5-0.7c-1.3,0-2.4,0.2-3.5,0.7c-1.1,0.5-2,1.1-2.7,1.9c-0.7,0.8-1.3,1.7-1.7,2.8
	c-0.4,1.1-0.6,2.3-0.6,3.5c0,1.3,0.2,2.4,0.6,3.5c0.4,1.1,1,2,1.7,2.8c0.7,0.8,1.7,1.4,2.7,1.8c1,0.4,2.2,0.7,3.5,0.7
	c1.3,0,2.4-0.2,3.5-0.7c1-0.4,1.9-1.1,2.7-1.9c0.7-0.8,1.3-1.7,1.7-2.8c0.4-1.1,0.6-2.3,0.6-3.5c0-1.2-0.2-2.4-0.6-3.5
	C224.4,18.8,223.8,17.8,223.1,17.1z M222.2,25.9c-0.3,0.8-0.6,1.4-1.1,1.9c-0.5,0.5-1.1,1-1.8,1.3c-0.7,0.3-1.5,0.5-2.3,0.5
	c-0.9,0-1.7-0.1-2.3-0.4c-0.7-0.3-1.3-0.7-1.8-1.2c-0.5-0.5-0.9-1.2-1.1-1.9c-0.3-0.8-0.4-1.6-0.4-2.6c0-0.9,0.1-1.8,0.4-2.5
	c0.3-0.7,0.6-1.4,1.1-1.9c0.5-0.5,1.1-0.9,1.8-1.2c0.7-0.3,1.5-0.4,2.3-0.4c0.9,0,1.6,0.1,2.3,0.4c0.7,0.3,1.3,0.7,1.8,1.2
	c0.5,0.5,0.9,1.2,1.1,1.9c0.3,0.7,0.4,1.6,0.4,2.5C222.6,24.2,222.4,25.1,222.2,25.9z M231.4,30.3l0.4,0.4l-1.8,1.7l-0.4-0.2
	c-0.5-0.3-0.8-0.7-1.1-1.1c-0.3-0.4-0.5-0.9-0.7-1.4c-0.1-0.5-0.3-0.9-0.3-1.4c-0.1-0.5-0.1-0.9-0.1-1.4V7.5h2.8v19.3
	c0,0.8,0.1,1.5,0.3,2.1C230.8,29.4,231,29.9,231.4,30.3z M245.9,28.1c-0.8,0.4-1.6,0.8-2.4,1.1c-0.8,0.3-1.6,0.4-2.4,0.4
	c-1.5,0-2.7-0.4-3.5-1.1c-0.7-0.7-1.1-1.6-1.4-2.9h3.2c0.9,0,1.9-0.1,2.7-0.3c0.9-0.2,1.7-0.5,2.4-0.9c0.7-0.4,1.3-1,1.8-1.7
	c0.5-0.7,0.7-1.6,0.7-2.7c0-0.8-0.2-1.6-0.5-2.3c-0.3-0.7-0.8-1.3-1.4-1.7c-0.6-0.5-1.3-0.8-2-1.1c-0.8-0.2-1.6-0.4-2.4-0.4
	c-1.1,0-2.2,0.3-3.1,0.8c-0.9,0.5-1.7,1.2-2.4,2c-0.6,0.8-1.2,1.8-1.5,2.8c-0.3,1.1-0.5,2.2-0.5,3.4c0,2.8,0.7,5,2,6.5
	c1.3,1.5,3.3,2.3,5.9,2.3c1.2,0,2.4-0.2,3.4-0.6c1-0.4,2-0.8,2.7-1.4l0.4-0.3l-1.4-2.2L245.9,28.1z M236.5,21c0.2-0.7,0.6-1.4,1-2
	c0.4-0.6,0.9-1,1.5-1.4c0.6-0.3,1.2-0.5,1.8-0.5c1.1,0,1.9,0.3,2.6,0.8c0.6,0.5,0.9,1.2,0.9,2c0,0.3-0.1,0.7-0.2,1
	c-0.1,0.3-0.3,0.6-0.6,0.8c-0.3,0.3-0.8,0.5-1.4,0.7c-0.6,0.2-1.5,0.3-2.5,0.3h-3.4C236.2,22.2,236.3,21.6,236.5,21z M267.4,20
	l0,11.9h-2.8l0-11.9c0-0.8-0.1-1.5-0.3-2.1c-0.2-0.6-0.5-1-0.9-1.4l-0.4-0.4l1.8-1.7l0.4,0.3c0.5,0.3,0.8,0.7,1.1,1.1
	c0.3,0.4,0.5,0.9,0.7,1.3c0.2,0.5,0.3,0.9,0.3,1.4C267.4,19.1,267.4,19.6,267.4,20z M267.2,8.6c0.4,0.4,0.6,0.9,0.6,1.4
	c0,0.5-0.2,1-0.6,1.4c-0.4,0.4-0.9,0.6-1.4,0.6c-0.6,0-1-0.2-1.4-0.6c-0.4-0.4-0.6-0.9-0.6-1.4c0-0.6,0.2-1.1,0.6-1.4
	c0.4-0.4,0.9-0.6,1.4-0.6C266.3,8,266.8,8.2,267.2,8.6z M281,27.4c0,0.9-0.2,1.6-0.5,2.3c-0.4,0.6-0.8,1.1-1.4,1.5
	c-0.6,0.4-1.2,0.7-1.9,0.8c-0.7,0.2-1.4,0.3-2.2,0.3c-1.1,0-2.2-0.2-3.2-0.6c-1-0.4-1.8-0.8-2.5-1.4l-0.4-0.3l1.5-2.2l0.4,0.3
	c0.5,0.3,1.2,0.7,2,1c0.7,0.3,1.6,0.5,2.6,0.5c0.4,0,0.8,0,1.2-0.1c0.4-0.1,0.7-0.2,1-0.4c0.2-0.2,0.4-0.4,0.6-0.6
	c0.1-0.3,0.2-0.6,0.2-1c0-0.6-0.2-1.1-0.5-1.4c-0.4-0.4-0.8-0.7-1.4-1c-0.6-0.3-1.2-0.5-1.9-0.8c-0.7-0.2-1.4-0.6-2.1-1
	c-0.7-0.4-1.2-1-1.7-1.6c-0.5-0.7-0.7-1.6-0.7-2.7c0-0.6,0.1-1.2,0.4-1.7c0.2-0.5,0.6-1,1.1-1.4c0.5-0.4,1-0.7,1.6-0.9
	c0.6-0.2,1.4-0.4,2.1-0.4c0.6,0,1.3,0,1.9,0.1c0.6,0,1.3,0.1,2,0.1l0.5,0v2.7l-0.6,0c-1.6-0.1-3-0.2-4.1-0.2c-0.7,0-1.2,0.2-1.6,0.5
	c-0.4,0.4-0.5,0.7-0.5,1.2c0,0.6,0.2,1.1,0.5,1.4c0.4,0.4,0.8,0.7,1.4,1c0.6,0.3,1.2,0.5,1.9,0.8c0.7,0.3,1.4,0.6,2.1,1
	c0.7,0.4,1.2,1,1.7,1.6C280.8,25.4,281,26.3,281,27.4z M256.8,23.3l5.2,8.8h-3.1l-3.7-6.1l-3.7,6.1h-3.1l5.2-8.8l-4.7-7.8l2.7-0.8
	l3.5,5.9l3.5-5.9l2.7,0.8L256.8,23.3z"/>
<g>
	<linearGradient id="SVGID_2_" gradientUnits="userSpaceOnUse" x1="100.7586" y1="12.1793" x2="114.1957" y2="32.7302">
		<stop  offset="0" style="stop-color:#C3141B"/>
		<stop  offset="0.1573" style="stop-color:#C52922"/>
		<stop  offset="0.3933" style="stop-color:#C3141B"/>
		<stop  offset="0.6404" style="stop-color:#B51719"/>
		<stop  offset="1" style="stop-color:#911B15"/>
	</linearGradient>
	<rect x="93.6" y="9.2" class="st3" width="30.1" height="30.1"/>
	<linearGradient id="SVGID_3_" gradientUnits="userSpaceOnUse" x1="95.976" y1="24.2567" x2="93.7697" y2="24.2567">
		<stop  offset="0" style="stop-color:#C73829"/>
		<stop  offset="1" style="stop-color:#911B15"/>
	</linearGradient>
	<polygon class="st4" points="96,11.6 96,36.9 93.6,39.3 93.6,9.2 	"/>
	<linearGradient id="SVGID_4_" gradientUnits="userSpaceOnUse" x1="95.976" y1="27.8813" x2="93.7697" y2="27.8813">
		<stop  offset="0" style="stop-color:#C3141B"/>
		<stop  offset="1" style="stop-color:#7B1B11"/>
	</linearGradient>
	<path class="st5" d="M93.6,16.5v22.8l2.4-2.4v-2.8C96,27.7,95.1,18.1,93.6,16.5z"/>
	<linearGradient id="SVGID_5_" gradientUnits="userSpaceOnUse" x1="108.6557" y1="36.8801" x2="108.6557" y2="39.2748">
		<stop  offset="0" style="stop-color:#911B15"/>
		<stop  offset="1" style="stop-color:#4C1500"/>
	</linearGradient>
	<polygon class="st6" points="96,36.9 121.3,36.9 123.7,39.3 93.6,39.3 	"/>
	<linearGradient id="SVGID_6_" gradientUnits="userSpaceOnUse" x1="120.6304" y1="36.8801" x2="120.6304" y2="39.2748">
		<stop  offset="0" style="stop-color:#731B10"/>
		<stop  offset="1" style="stop-color:#320B00"/>
	</linearGradient>
	<path class="st7" d="M121.3,36.9h-3.8c1.3,0.4,2.5,1.2,3.2,2.4h2.9L121.3,36.9z"/>
	<linearGradient id="SVGID_7_" gradientUnits="userSpaceOnUse" x1="121.2505" y1="24.2573" x2="123.603" y2="24.2573">
		<stop  offset="0" style="stop-color:#A11A17"/>
		<stop  offset="1" style="stop-color:#65190B"/>
	</linearGradient>
	<polygon class="st8" points="121.3,11.6 121.3,36.9 123.7,39.3 123.7,9.2 	"/>
	<linearGradient id="SVGID_8_" gradientUnits="userSpaceOnUse" x1="121.2505" y1="25.445" x2="123.603" y2="25.445">
		<stop  offset="0" style="stop-color:#911B15"/>
		<stop  offset="1" style="stop-color:#4C1500"/>
	</linearGradient>
	<path class="st9" d="M121.3,11.6v25.3l2.4,2.4v-8.6C122.4,25.9,121.6,16.5,121.3,11.6z"/>
	<linearGradient id="SVGID_9_" gradientUnits="userSpaceOnUse" x1="108.6557" y1="11.5426" x2="108.6557" y2="9.1471">
		<stop  offset="0" style="stop-color:#C73829"/>
		<stop  offset="1" style="stop-color:#B21719"/>
	</linearGradient>
	<polygon class="st10" points="96,11.6 121.3,11.6 123.7,9.2 93.6,9.2 	"/>
	<linearGradient id="SVGID_10_" gradientUnits="userSpaceOnUse" x1="115.0084" y1="11.5426" x2="115.0084" y2="9.1471">
		<stop  offset="0" style="stop-color:#C94431"/>
		<stop  offset="1" style="stop-color:#C3141B"/>
	</linearGradient>
	<path class="st11" d="M123.7,9.2l-17.4,0c2.5,1.8,7.7,2.4,12.5,2.4h2.5L123.7,9.2z"/>
	<linearGradient id="SVGID_11_" gradientUnits="userSpaceOnUse" x1="100.2177" y1="11.5426" x2="100.2177" y2="9.1471">
		<stop  offset="0" style="stop-color:#C94431"/>
		<stop  offset="1" style="stop-color:#C3141B"/>
	</linearGradient>
	<path class="st12" d="M96.2,9.2h-0.8c1.1,1.3,2.4,2,4.5,2.4h5C100.2,11.4,97.3,10.5,96.2,9.2z"/>
	<linearGradient id="SVGID_12_" gradientUnits="userSpaceOnUse" x1="102.1534" y1="11.5426" x2="102.1534" y2="9.1471">
		<stop  offset="0" style="stop-color:#CC5239"/>
		<stop  offset="1" style="stop-color:#C73829"/>
	</linearGradient>
	<path class="st13" d="M96.5,9.2h-0.3c1.1,1.3,3.4,2.1,6.2,2.4h5.7C99.8,11.6,97.1,10.3,96.5,9.2z"/>
	
		<linearGradient id="SVGID_13_" gradientUnits="userSpaceOnUse" x1="885.4918" y1="496.0283" x2="885.4918" y2="493.6337" gradientTransform="matrix(-1 0 0 -1 996.5 533)">
		<stop  offset="0" style="stop-color:#7B1B11"/>
		<stop  offset="1" style="stop-color:#411200"/>
	</linearGradient>
	<path class="st14" d="M116,39.3h6.2c-1.1-1.3-2.8-2-5-2.4H99.8C108.8,37.1,115.2,37.5,116,39.3z"/>
	<g>
		
			<rect x="104.2" y="1.9" transform="matrix(0.7066 -0.7076 0.7076 0.7066 29.0711 77.1514)" class="st15" width="6.7" height="3.2"/>
		<rect x="111.8" y="2" transform="matrix(0.7071 -0.7071 0.7071 0.7071 28.3466 82.2412)" class="st16" width="3.2" height="9.9"/>
		
			<rect x="124.6" y="12.2" transform="matrix(0.7071 -0.7071 0.7071 0.7071 23.0265 95.0095)" class="st17" width="3.3" height="15.1"/>
		
			<rect x="107.2" y="43.9" transform="matrix(0.7073 -0.7069 0.7069 0.7073 -0.304 90.2398)" class="st16" width="3.2" height="3.2"/>
		
			<rect x="83.8" y="17.9" transform="matrix(0.7069 -0.7073 0.7073 0.7069 13.0649 70.4692)" class="st16" width="15.6" height="3.1"/>
		
			<rect x="90.3" y="23.5" transform="matrix(0.7072 -0.7071 0.7071 0.7072 6.7226 73.3118)" class="st17" width="3.2" height="10.1"/>
		<rect x="98.2" y="33.8" transform="matrix(0.707 -0.7072 0.7072 0.707 3.4466 81.2617)" class="st15" width="3.2" height="5.4"/>
		<g>
			<path class="st16" d="M126.4,26.6c0,1.1-0.4,1.7-0.7,2c-0.3,0.3-0.9,0.7-2,0.7c-2,0-3.2,0.8-3.9,1.5c-0.7,0.7-1.5,1.9-1.5,3.9
				c0,1.1-0.4,1.7-0.7,2c-0.3,0.3-0.9,0.7-2,0.7c-2,0-3.2,0.8-3.9,1.5c-0.7,0.7-1.5,1.9-1.5,3.9l2.7,0c0-1.1,0.4-1.7,0.7-2
				c0.3-0.3,0.9-0.7,2-0.7c2,0,3.2-0.8,3.9-1.5c0.7-0.7,1.5-1.9,1.5-3.9c0-1.1,0.4-1.7,0.7-2c0.3-0.3,0.9-0.7,2-0.7
				c2,0,3.2-0.8,3.9-1.5c0.7-0.7,1.5-1.9,1.5-3.9H126.4z"/>
		</g>
	</g>
</g>
</svg>
